<svg xmlns="http://www.w3.org/2000/svg" xmlns:xlink="http://www.w3.org/1999/xlink" version="1.1" data-diagram-type="CLASS" style="width:733px;height:393px;background:#FFFFFF;" width="733px" height="393px" viewBox="0 0 733 393" zoomAndPan="magnify" preserveAspectRatio="none" contentStyleType="text/css"><?plantuml 1.2026.7?><defs/><g font-family="sans-serif" lengthAdjust="spacing"><!--cluster Application--><g class="cluster" data-qualified-name="Application" id="ent0001" data-source-line="1"><path d="M8.5,6 L91.511,6 A3.75,3.75 0 0 1 94.011,8.5 L101.011,28.488 L715.5,28.488 A2.5,2.5 0 0 1 718,30.988 L718,376.43 A2.5,2.5 0 0 1 715.5,378.93 L8.5,378.93 A2.5,2.5 0 0 1 6,376.43 L6,8.5 A2.5,2.5 0 0 1 8.5,6" style="stroke:#000;stroke-width:1.5;" fill="none"/><line x1="6" y1="28.488" x2="101.011" y2="28.488" style="stroke:#000;stroke-width:1.5;"/><text x="10" y="21.535" fill="#000" font-size="14" textLength="82.011" font-weight="700">Application</text></g><!--cluster Users--><g class="cluster" data-qualified-name="Application.Users" id="ent0002" data-source-line="2"><path d="M32.5,49 L74.208,49 A3.75,3.75 0 0 1 76.708,51.5 L83.708,71.488 L691.5,71.488 A2.5,2.5 0 0 1 694,73.988 L694,352.43 A2.5,2.5 0 0 1 691.5,354.93 L32.5,354.93 A2.5,2.5 0 0 1 30,352.43 L30,51.5 A2.5,2.5 0 0 1 32.5,49" style="stroke:#000;stroke-width:1.5;" fill="none"/><line x1="30" y1="71.488" x2="83.708" y2="71.488" style="stroke:#000;stroke-width:1.5;"/><text x="34" y="64.535" fill="#000" font-size="14" textLength="40.708" font-weight="700">Users</text></g><!--class UserDeleteService--><g class="entity" data-qualified-name="Application.Users.UserDeleteService" id="ent0003" data-source-line="3"><rect x="73.58" y="92.24" width="238.83" height="80.977" fill="#F1F1F1" style="stroke:#181818;stroke-width:0.5;" rx="2.5" ry="2.5"/><ellipse cx="128.312" cy="108.24" rx="11" ry="11" fill="#ADD1B2" style="stroke:#181818;stroke-width:1;"/><path d="M130.785,114.383 Q130.204,114.682 129.565,114.831 Q128.926,114.981 128.22,114.981 Q125.713,114.981 124.393,113.329 Q123.074,111.677 123.074,108.556 Q123.074,105.427 124.393,103.775 Q125.713,102.123 128.22,102.123 Q128.926,102.123 129.573,102.272 Q130.221,102.422 130.785,102.72 L130.785,105.443 Q130.154,104.862 129.561,104.592 Q128.967,104.323 128.336,104.323 Q126.992,104.323 126.307,105.389 Q125.622,106.456 125.622,108.556 Q125.622,110.648 126.307,111.714 Q126.992,112.781 128.336,112.781 Q128.967,112.781 129.561,112.511 Q130.154,112.241 130.785,111.66 Z " fill="#000"/><text x="148.812" y="113.531" fill="#000" font-size="14" textLength="120.866">UserDeleteService</text><line x1="74.58" y1="124.24" x2="311.41" y2="124.24" style="stroke:#181818;stroke-width:0.5;"/><g data-visibility-modifier="PRIVATE_FIELD"><rect x="81.58" y="134.984" width="6" height="6" fill="none" style="stroke:#C82930;stroke-width:1;"/></g><text x="93.58" y="141.775" fill="#000" font-size="14" textLength="212.83">userRepository: UserRepository</text><line x1="74.58" y1="148.728" x2="311.41" y2="148.728" style="stroke:#181818;stroke-width:0.5;"/><g data-visibility-modifier="PUBLIC_METHOD"><ellipse cx="84.58" cy="162.472" rx="3" ry="3" fill="#84BE84" style="stroke:#038048;stroke-width:1;"/></g><text x="93.58" y="166.263" fill="#000" font-size="14" textLength="154.438">Delete(user User) error</text></g><!--class UserRegisterService--><g class="entity" data-qualified-name="Application.Users.UserRegisterService" id="ent0004" data-source-line="7"><rect x="347.63" y="84" width="240.744" height="97.465" fill="#F1F1F1" style="stroke:#181818;stroke-width:0.5;" rx="2.5" ry="2.5"/><ellipse cx="397.238" cy="100" rx="11" ry="11" fill="#ADD1B2" style="stroke:#181818;stroke-width:1;"/><path d="M399.712,106.143 Q399.13,106.442 398.491,106.591 Q397.852,106.741 397.147,106.741 Q394.64,106.741 393.32,105.089 Q392,103.437 392,100.316 Q392,97.187 393.32,95.535 Q394.64,93.883 397.147,93.883 Q397.852,93.883 398.5,94.032 Q399.147,94.182 399.712,94.48 L399.712,97.203 Q399.081,96.622 398.487,96.352 Q397.894,96.083 397.263,96.083 Q395.918,96.083 395.233,97.149 Q394.548,98.216 394.548,100.316 Q394.548,102.408 395.233,103.474 Q395.918,104.541 397.263,104.541 Q397.894,104.541 398.487,104.271 Q399.081,104.001 399.712,103.42 Z " fill="#000"/><text x="417.738" y="105.291" fill="#000" font-size="14" textLength="133.027">UserRegisterService</text><line x1="348.63" y1="116" x2="587.374" y2="116" style="stroke:#181818;stroke-width:0.5;"/><g data-visibility-modifier="PRIVATE_FIELD"><rect x="355.63" y="126.744" width="6" height="6" fill="none" style="stroke:#C82930;stroke-width:1;"/></g><text x="367.63" y="133.535" fill="#000" font-size="14" textLength="212.83">userRepository: UserRepository</text><g data-visibility-modifier="PRIVATE_FIELD"><rect x="355.63" y="143.232" width="6" height="6" fill="none" style="stroke:#C82930;stroke-width:1;"/></g><text x="367.63" y="150.023" fill="#000" font-size="14" textLength="163.242">userService: UserService</text><line x1="348.63" y1="156.977" x2="587.374" y2="156.977" style="stroke:#181818;stroke-width:0.5;"/><g data-visibility-modifier="PUBLIC_METHOD"><ellipse cx="358.63" cy="170.721" rx="3" ry="3" fill="#84BE84" style="stroke:#038048;stroke-width:1;"/></g><text x="367.63" y="174.512" fill="#000" font-size="14" textLength="214.744">Register(userName string) error</text></g><!--class UserGetService--><g class="entity" data-qualified-name="Application.Users.UserGetService" id="ent0005" data-source-line="12"><rect x="45.58" y="249.71" width="294.83" height="80.977" fill="#F1F1F1" style="stroke:#181818;stroke-width:0.5;" rx="2.5" ry="2.5"/><ellipse cx="138.32" cy="265.71" rx="11" ry="11" fill="#ADD1B2" style="stroke:#181818;stroke-width:1;"/><path d="M140.793,271.853 Q140.212,272.152 139.573,272.301 Q138.934,272.451 138.228,272.451 Q135.721,272.451 134.401,270.799 Q133.081,269.147 133.081,266.026 Q133.081,262.897 134.401,261.245 Q135.721,259.593 138.228,259.593 Q138.934,259.593 139.581,259.742 Q140.228,259.892 140.793,260.19 L140.793,262.913 Q140.162,262.332 139.569,262.062 Q138.975,261.793 138.344,261.793 Q136.999,261.793 136.315,262.859 Q135.63,263.926 135.63,266.026 Q135.63,268.118 136.315,269.184 Q136.999,270.251 138.344,270.251 Q138.975,270.251 139.569,269.981 Q140.162,269.711 140.793,269.13 Z " fill="#000"/><text x="158.82" y="271.001" fill="#000" font-size="14" textLength="100.851">UserGetService</text><line x1="46.58" y1="281.71" x2="339.41" y2="281.71" style="stroke:#181818;stroke-width:0.5;"/><g data-visibility-modifier="PRIVATE_FIELD"><rect x="53.58" y="292.454" width="6" height="6" fill="none" style="stroke:#C82930;stroke-width:1;"/></g><text x="65.58" y="299.245" fill="#000" font-size="14" textLength="212.83">userRepository: UserRepository</text><line x1="46.58" y1="306.198" x2="339.41" y2="306.198" style="stroke:#181818;stroke-width:0.5;"/><g data-visibility-modifier="PUBLIC_METHOD"><ellipse cx="56.58" cy="319.942" rx="3" ry="3" fill="#84BE84" style="stroke:#038048;stroke-width:1;"/></g><text x="65.58" y="323.733" fill="#000" font-size="14" textLength="268.83">Get(userName string) (*UserData, error)</text></g><!--class UserUpdateService--><g class="entity" data-qualified-name="Application.Users.UserUpdateService" id="ent0006" data-source-line="16"><rect x="375.6" y="241.47" width="302.808" height="97.465" fill="#F1F1F1" style="stroke:#181818;stroke-width:0.5;" rx="2.5" ry="2.5"/><ellipse cx="459.86" cy="257.47" rx="11" ry="11" fill="#ADD1B2" style="stroke:#181818;stroke-width:1;"/><path d="M462.333,263.613 Q461.752,263.912 461.113,264.061 Q460.474,264.211 459.768,264.211 Q457.261,264.211 455.941,262.559 Q454.621,260.907 454.621,257.786 Q454.621,254.657 455.941,253.005 Q457.261,251.353 459.768,251.353 Q460.474,251.353 461.121,251.502 Q461.768,251.652 462.333,251.95 L462.333,254.673 Q461.702,254.092 461.109,253.822 Q460.515,253.553 459.884,253.553 Q458.539,253.553 457.855,254.619 Q457.17,255.686 457.17,257.786 Q457.17,259.878 457.855,260.944 Q458.539,262.011 459.884,262.011 Q460.515,262.011 461.109,261.741 Q461.702,261.471 462.333,260.89 Z " fill="#000"/><text x="480.36" y="262.761" fill="#000" font-size="14" textLength="125.788">UserUpdateService</text><line x1="376.6" y1="273.47" x2="677.408" y2="273.47" style="stroke:#181818;stroke-width:0.5;"/><g data-visibility-modifier="PRIVATE_FIELD"><rect x="383.6" y="284.214" width="6" height="6" fill="none" style="stroke:#C82930;stroke-width:1;"/></g><text x="395.6" y="291.005" fill="#000" font-size="14" textLength="212.83">userRepository: UserRepository</text><g data-visibility-modifier="PRIVATE_FIELD"><rect x="383.6" y="300.702" width="6" height="6" fill="none" style="stroke:#C82930;stroke-width:1;"/></g><text x="395.6" y="307.493" fill="#000" font-size="14" textLength="163.242">userService: UserService</text><line x1="376.6" y1="314.447" x2="677.408" y2="314.447" style="stroke:#181818;stroke-width:0.5;"/><g data-visibility-modifier="PUBLIC_METHOD"><ellipse cx="386.6" cy="328.191" rx="3" ry="3" fill="#84BE84" style="stroke:#038048;stroke-width:1;"/></g><text x="395.6" y="331.982" fill="#000" font-size="14" textLength="276.808">Update(cmd UserUpdateCommand) error</text></g><?plantuml-src dP1D2i8m48NtdcAMhJyNS2SAxbnKUe0X7KgmQS9a54HwTzia_b15fCkPzoRVotEeJbWJR9nhj4BHjeNR3C2bVUc9_R00K0rw7nOxQaZeI7pHYY2g02iuzrf1pdejbg_hu7tDoRQ0U9uDxc39WPWj1xqReGggjHVYYR1eIyVHauPdcWSXv3cW8V32kgr_fTgJJFvzV_k9okQXLnHSHcp-bLkw2YSN_qSNyVrCcUeDjxN6O5kD--XctHq0?></g></svg>