<svg xmlns="http://www.w3.org/2000/svg" xmlns:xlink="http://www.w3.org/1999/xlink" version="1.1" data-diagram-type="CLASS" style="width:881px;height:210px;background:#FFFFFF;" width="881px" height="210px" viewBox="0 0 881 210" zoomAndPan="magnify" preserveAspectRatio="none" contentStyleType="text/css"><?plantuml 1.2026.7?><defs/><g font-family="sans-serif" lengthAdjust="spacing"><!--class UserRepository--><g class="entity" data-qualified-name="UserRepository" id="ent0001" data-source-line="1"><rect x="281.12" y="7" width="308.591" height="64.488" fill="#F1F1F1" style="stroke:#181818;stroke-width:0.5;" rx="2.5" ry="2.5"/><ellipse cx="379.92" cy="23" rx="11" ry="11" fill="#B4A7E5" style="stroke:#181818;stroke-width:1;"/><path d="M376.348,19.265 L376.348,17.107 L383.727,17.107 L383.727,19.265 L381.262,19.265 L381.262,27.342 L383.727,27.342 L383.727,29.5 L376.348,29.5 L376.348,27.342 L378.813,27.342 L378.813,19.265 Z " fill="#000"/><text x="400.42" y="28.291" fill="#000" font-size="14" textLength="102.491" font-style="italic">UserRepository</text><line x1="282.12" y1="39" x2="588.711" y2="39" style="stroke:#181818;stroke-width:0.5;"/><line x1="282.12" y1="47" x2="588.711" y2="47" style="stroke:#181818;stroke-width:0.5;"/><text x="287.12" y="64.535" fill="#000" font-size="14" textLength="296.591">FindByName(name UserName) (*User, error)</text></g><!--class MySQLUserRepository--><g class="entity" data-qualified-name="MySQLUserRepository" id="ent0002" data-source-line="1"><rect x="95.12" y="131.49" width="322.591" height="64.488" fill="#F1F1F1" style="stroke:#181818;stroke-width:0.5;" rx="2.5" ry="2.5"/><ellipse cx="178.293" cy="147.49" rx="11" ry="11" fill="#ADD1B2" style="stroke:#181818;stroke-width:1;"/><path d="M180.766,153.633 Q180.185,153.932 179.546,154.081 Q178.907,154.231 178.201,154.231 Q175.694,154.231 174.374,152.579 Q173.055,150.927 173.055,147.806 Q173.055,144.677 174.374,143.025 Q175.694,141.373 178.201,141.373 Q178.907,141.373 179.554,141.522 Q180.202,141.672 180.766,141.97 L180.766,144.693 Q180.135,144.112 179.542,143.842 Q178.948,143.573 178.317,143.573 Q176.973,143.573 176.288,144.639 Q175.603,145.706 175.603,147.806 Q175.603,149.898 176.288,150.964 Q176.973,152.031 178.317,152.031 Q178.948,152.031 179.542,151.761 Q180.135,151.491 180.766,150.91 Z " fill="#000"/><text x="198.793" y="152.781" fill="#000" font-size="14" textLength="147.745">MySQLUserRepository</text><line x1="96.12" y1="163.49" x2="416.711" y2="163.49" style="stroke:#181818;stroke-width:0.5;"/><line x1="96.12" y1="171.49" x2="416.711" y2="171.49" style="stroke:#181818;stroke-width:0.5;"/><g data-visibility-modifier="PRIVATE_METHOD"><rect x="103.12" y="182.234" width="6" height="6" fill="#F24D5C" style="stroke:#C82930;stroke-width:1;"/></g><text x="115.12" y="189.025" fill="#000" font-size="14" textLength="296.591">FindByName(name UserName) (*User, error)</text></g><!--class UserFirebaseRepository--><g class="entity" data-qualified-name="UserFirebaseRepository" id="ent0004" data-source-line="2"><rect x="453.12" y="131.49" width="322.591" height="64.488" fill="#F1F1F1" style="stroke:#181818;stroke-width:0.5;" rx="2.5" ry="2.5"/><ellipse cx="530.64" cy="147.49" rx="11" ry="11" fill="#ADD1B2" style="stroke:#181818;stroke-width:1;"/><path d="M533.113,153.633 Q532.532,153.932 531.892,154.081 Q531.253,154.231 530.548,154.231 Q528.041,154.231 526.721,152.579 Q525.401,150.927 525.401,147.806 Q525.401,144.677 526.721,143.025 Q528.041,141.373 530.548,141.373 Q531.253,141.373 531.901,141.522 Q532.548,141.672 533.113,141.97 L533.113,144.693 Q532.482,144.112 531.888,143.842 Q531.295,143.573 530.664,143.573 Q529.319,143.573 528.634,144.639 Q527.95,145.706 527.95,147.806 Q527.95,149.898 528.634,150.964 Q529.319,152.031 530.664,152.031 Q531.295,152.031 531.888,151.761 Q532.482,151.491 533.113,150.91 Z " fill="#000"/><text x="551.14" y="152.781" fill="#000" font-size="14" textLength="159.052">UserFirebaseRepository</text><line x1="454.12" y1="163.49" x2="774.711" y2="163.49" style="stroke:#181818;stroke-width:0.5;"/><line x1="454.12" y1="171.49" x2="774.711" y2="171.49" style="stroke:#181818;stroke-width:0.5;"/><g data-visibility-modifier="PRIVATE_METHOD"><rect x="461.12" y="182.234" width="6" height="6" fill="#F24D5C" style="stroke:#C82930;stroke-width:1;"/></g><text x="473.12" y="189.025" fill="#000" font-size="14" textLength="296.591">FindByName(name UserName) (*User, error)</text></g><!--class UserApplicationService--><g class="entity" data-qualified-name="UserApplicationService" id="ent0006" data-source-line="3"><rect x="7" y="7" width="238.83" height="64.488" fill="#F1F1F1" style="stroke:#181818;stroke-width:0.5;" rx="2.5" ry="2.5"/><ellipse cx="45.527" cy="23" rx="11" ry="11" fill="#ADD1B2" style="stroke:#181818;stroke-width:1;"/><path d="M48.001,29.143 Q47.42,29.442 46.78,29.591 Q46.141,29.741 45.436,29.741 Q42.929,29.741 41.609,28.089 Q40.289,26.437 40.289,23.316 Q40.289,20.187 41.609,18.535 Q42.929,16.883 45.436,16.883 Q46.141,16.883 46.789,17.032 Q47.436,17.182 48.001,17.48 L48.001,20.203 Q47.37,19.622 46.776,19.352 Q46.183,19.083 45.552,19.083 Q44.207,19.083 43.522,20.149 Q42.838,21.216 42.838,23.316 Q42.838,25.408 43.522,26.474 Q44.207,27.541 45.552,27.541 Q46.183,27.541 46.776,27.271 Q47.37,27.001 48.001,26.42 Z " fill="#000"/><text x="64.756" y="28.291" fill="#000" font-size="14" textLength="154.547">UserApplicationService</text><line x1="8" y1="39" x2="244.83" y2="39" style="stroke:#181818;stroke-width:0.5;"/><g data-visibility-modifier="PRIVATE_FIELD"><rect x="15" y="49.744" width="6" height="6" fill="none" style="stroke:#C82930;stroke-width:1;"/></g><text x="27" y="56.535" fill="#000" font-size="14" textLength="212.83">userRepository: UserRepository</text><line x1="8" y1="63.488" x2="244.83" y2="63.488" style="stroke:#181818;stroke-width:0.5;"/></g><g class="entity" data-qualified-name="note" id="ent0008" data-source-line="18"><path d="M624.42,26.59 L624.42,51.901 L866.42,51.901 L866.42,36.59 L856.42,26.59 L624.42,26.59" style="stroke:#181818;stroke-width:0.5;" fill="#FEFFDD"/><path d="M856.42,26.59 L856.42,36.59 L866.42,36.59 L856.42,26.59" style="stroke:#181818;stroke-width:1;" fill="#FEFFDD"/><text x="630.42" y="44.158" fill="#000" font-size="13" textLength="221">実現するオブジェクトはすぐ変更可能</text></g><!--reverse link UserRepository to MySQLUserRepository--><g class="link" data-entity-1="ent0001" data-entity-2="ent0002" id="lnk3" data-source-line="1" data-link-type="extension"><path d="M374.466,81.957 C347.846,100.177 329.31,112.85 302.67,131.09" style="stroke:#181818;stroke-width:1;stroke-dasharray:7,7;" fill="none" id="UserRepository-backto-MySQLUserRepository" codeLine="1"/><polygon points="389.32,71.79,371.077,77.005,377.855,86.908,389.32,71.79" fill="none" style="stroke:#181818;stroke-width:1;stroke-linejoin:miter;stroke-miterlimit:10;"/></g><!--reverse link UserRepository to UserFirebaseRepository--><g class="link" data-entity-1="ent0001" data-entity-2="ent0004" id="lnk5" data-source-line="2" data-link-type="extension"><path d="M496.364,81.957 C522.984,100.177 541.52,112.85 568.16,131.09" style="stroke:#181818;stroke-width:1;stroke-dasharray:7,7;" fill="none" id="UserRepository-backto-UserFirebaseRepository" codeLine="2"/><polygon points="481.51,71.79,492.975,86.908,499.753,77.005,481.51,71.79" fill="none" style="stroke:#181818;stroke-width:1;stroke-linejoin:miter;stroke-miterlimit:10;"/></g><!--link UserApplicationService to UserRepository--><g class="link" data-entity-1="ent0006" data-entity-2="ent0001" id="lnk7" data-source-line="3" data-link-type="dependency"><path d="M246.21,39.25 C257.79,39.25 264.37,39.25 275.95,39.25" style="stroke:#181818;stroke-width:1;stroke-dasharray:7,7;" fill="none" id="UserApplicationService-to-UserRepository" codeLine="3"/><polygon points="280.95,39.25,271.95,35.25,275.95,39.25,271.95,43.25,280.95,39.25" fill="#181818" style="stroke:#181818;stroke-width:1;stroke-linejoin:miter;stroke-miterlimit:10;"/></g><?plantuml-src 2orEBGfABSWlpYp9BwfKiAdHqrFmhGmEz0b5aU0AnQ9EGG4awfPPb9gKM9oAfjYne20dCpcn93C_BpYrg2mpELL1pqu1pLIkpBoIrAAqHA0acWNLN0eARfbvAKwLVecvgHfvG0Ai1CJJLD3G0h5r55ABYlABDBbgkP9p4ekB5N3O2p9BLw4KnG8hTAV0pC3YUQW1P3a7CtH8DoqlloHL8R5O0KHpFLqt_td_liUDCnytTJzkMlMuUThZfXsFcvO_Rbh_kBdZSUDwa5JZXATBEf_DtlAqV_sBvhrSgNaf8Bq0?></g></svg>