<svg xmlns="http://www.w3.org/2000/svg" xmlns:xlink="http://www.w3.org/1999/xlink" version="1.1" data-diagram-type="CLASS" style="width:882px;height:210px;background:#FFFFFF;" width="882px" height="210px" viewBox="0 0 882 210" zoomAndPan="magnify" preserveAspectRatio="none" contentStyleType="text/css"><?plantuml 1.2026.7?><defs/><g font-family="sans-serif" lengthAdjust="spacing"><!--class IUserRepository--><g class="entity" data-qualified-name="IUserRepository" id="ent0001" data-source-line="1"><rect x="285.19" y="7" width="202.483" height="64.488" fill="#F1F1F1" style="stroke:#181818;stroke-width:0.5;" rx="2.5" ry="2.5"/><ellipse cx="328.972" cy="23" rx="11" ry="11" fill="#B4A7E5" style="stroke:#181818;stroke-width:1;"/><path d="M325.399,19.265 L325.399,17.107 L332.779,17.107 L332.779,19.265 L330.313,19.265 L330.313,27.342 L332.779,27.342 L332.779,29.5 L325.399,29.5 L325.399,27.342 L327.865,27.342 L327.865,19.265 Z " fill="#000"/><text x="349.367" y="28.291" fill="#000" font-size="14" textLength="106.524" font-style="italic">IUserRepository</text><line x1="286.19" y1="39" x2="486.673" y2="39" style="stroke:#181818;stroke-width:0.5;"/><line x1="286.19" y1="47" x2="486.673" y2="47" style="stroke:#181818;stroke-width:0.5;"/><text x="291.19" y="64.535" fill="#000" font-size="14" textLength="190.483">find(name: UserName): User</text></g><!--class UserMySqlRepository--><g class="entity" data-qualified-name="UserMySqlRepository" id="ent0002" data-source-line="1"><rect x="278.19" y="131.49" width="216.483" height="64.488" fill="#F1F1F1" style="stroke:#181818;stroke-width:0.5;" rx="2.5" ry="2.5"/><ellipse cx="312.189" cy="147.49" rx="11" ry="11" fill="#ADD1B2" style="stroke:#181818;stroke-width:1;"/><path d="M314.662,153.633 Q314.081,153.932 313.442,154.081 Q312.803,154.231 312.098,154.231 Q309.591,154.231 308.271,152.579 Q306.951,150.927 306.951,147.806 Q306.951,144.677 308.271,143.025 Q309.591,141.373 312.098,141.373 Q312.803,141.373 313.451,141.522 Q314.098,141.672 314.662,141.97 L314.662,144.693 Q314.032,144.112 313.438,143.842 Q312.845,143.573 312.214,143.573 Q310.869,143.573 310.184,144.639 Q309.499,145.706 309.499,147.806 Q309.499,149.898 310.184,150.964 Q310.869,152.031 312.214,152.031 Q312.845,152.031 313.438,151.761 Q314.032,151.491 314.662,150.91 Z " fill="#000"/><text x="330.411" y="152.781" fill="#000" font-size="14" textLength="142.263">UserMySqlRepository</text><line x1="279.19" y1="163.49" x2="493.673" y2="163.49" style="stroke:#181818;stroke-width:0.5;"/><line x1="279.19" y1="171.49" x2="493.673" y2="171.49" style="stroke:#181818;stroke-width:0.5;"/><g data-visibility-modifier="PRIVATE_METHOD"><rect x="286.19" y="182.234" width="6" height="6" fill="#F24D5C" style="stroke:#C82930;stroke-width:1;"/></g><text x="298.19" y="189.025" fill="#000" font-size="14" textLength="190.483">find(name: UserName): User</text></g><!--class UserApplicationService--><g class="entity" data-qualified-name="UserApplicationService" id="ent0004" data-source-line="2"><rect x="7" y="7" width="242.863" height="64.488" fill="#F1F1F1" style="stroke:#181818;stroke-width:0.5;" rx="2.5" ry="2.5"/><ellipse cx="47.342" cy="23" rx="11" ry="11" fill="#ADD1B2" style="stroke:#181818;stroke-width:1;"/><path d="M49.816,29.143 Q49.234,29.442 48.595,29.591 Q47.956,29.741 47.251,29.741 Q44.744,29.741 43.424,28.089 Q42.104,26.437 42.104,23.316 Q42.104,20.187 43.424,18.535 Q44.744,16.883 47.251,16.883 Q47.956,16.883 48.604,17.032 Q49.251,17.182 49.816,17.48 L49.816,20.203 Q49.185,19.622 48.591,19.352 Q47.998,19.083 47.367,19.083 Q46.022,19.083 45.337,20.149 Q44.652,21.216 44.652,23.316 Q44.652,25.408 45.337,26.474 Q46.022,27.541 47.367,27.541 Q47.998,27.541 48.591,27.271 Q49.185,27.001 49.816,26.42 Z " fill="#000"/><text x="66.974" y="28.291" fill="#000" font-size="14" textLength="154.547">UserApplicationService</text><line x1="8" y1="39" x2="248.863" y2="39" style="stroke:#181818;stroke-width:0.5;"/><g data-visibility-modifier="PRIVATE_FIELD"><rect x="15" y="49.744" width="6" height="6" fill="none" style="stroke:#C82930;stroke-width:1;"/></g><text x="27" y="56.535" fill="#000" font-size="14" textLength="216.863">userRepository: IUserRepository</text><line x1="8" y1="63.488" x2="248.863" y2="63.488" style="stroke:#181818;stroke-width:0.5;"/></g><g class="entity" data-qualified-name="note" id="ent0006" data-source-line="14"><path d="M522.93,18.94 L522.93,59.561 L867.93,59.561 L867.93,28.94 L857.93,18.94 L522.93,18.94" style="stroke:#181818;stroke-width:0.5;" fill="#FEFFDD"/><path d="M857.93,18.94 L857.93,28.94 L867.93,28.94 L857.93,18.94" style="stroke:#181818;stroke-width:1;" fill="#FEFFDD"/><ellipse cx="534.43" cy="31.751" rx="2.5" ry="2.5" fill="#000"/><text x="540.93" y="36.508" fill="#000" font-size="13" textLength="145.101">UserMySqlRepositoryの</text><text x="686.031" y="36.508" fill="#000" font-size="13" textLength="130" font-weight="700">依存関係の矢印が逆転</text><ellipse cx="534.43" cy="47.061" rx="2.5" ry="2.5" fill="#000"/><text x="540.93" y="51.819" fill="#000" font-size="13" textLength="312">データストアを変えた時の上位層は変えなくても良い</text></g><!--reverse link IUserRepository to UserMySqlRepository--><g class="link" data-entity-1="ent0001" data-entity-2="ent0002" id="lnk3" data-source-line="1" data-link-type="extension"><path d="M386.43,89.79 C386.43,108.08 386.43,113.03 386.43,131.3" style="stroke:#181818;stroke-width:1;stroke-dasharray:7,7;" fill="none" id="IUserRepository-backto-UserMySqlRepository" codeLine="1"/><polygon points="386.43,71.79,380.43,89.79,392.43,89.79,386.43,71.79" fill="none" style="stroke:#181818;stroke-width:1;stroke-linejoin:miter;stroke-miterlimit:10;"/></g><!--link UserApplicationService to IUserRepository--><g class="link" data-entity-1="ent0004" data-entity-2="ent0001" id="lnk5" data-source-line="2" data-link-type="dependency"><path d="M250.12,39.25 C261.66,39.25 268.2,39.25 279.73,39.25" style="stroke:#181818;stroke-width:1;stroke-dasharray:7,7;" fill="none" id="UserApplicationService-to-IUserRepository" codeLine="2"/><polygon points="284.73,39.25,275.73,35.25,279.73,39.25,275.73,43.25,284.73,39.25" fill="#181818" style="stroke:#181818;stroke-width:1;stroke-linejoin:miter;stroke-miterlimit:10;"/></g><?plantuml-src ymmjJYqAIYt8ByuioI-gLB2fqTDJ08dvLWONvY0ak41YZWK5EPd9YIMP-Nd1gKLbcScf2dfs2fweHd1nPUQLf1Qb9G9bqQGKghaK5D8oyr8qyX9pKwt0zlW1MPeG9bSjLt9EOd6n0WwxGBfr5KfHZBJ2i1xP43HFG4t0wuAy_99KXSHY1H3DfONDbCUDwxIqdkoR-tJjZ9VJ5ZtPtmGKU3v_qTFU3OyRUrusjBtOlKXB2wZrSNFxu-OzZvlsFsxQ-RYvut7JeiTDavukwNpSsF6uSVwpcI1zJtPqFTdR-tJZaiUDws5IgnutzZzkNFQugUb5v_h7ZIrSgNaf8DS00000?></g></svg>