<svg xmlns="http://www.w3.org/2000/svg" xmlns:xlink="http://www.w3.org/1999/xlink" version="1.1" data-diagram-type="CLASS" style="width:986px;height:244px;background:#FFFFFF;" width="986px" height="244px" viewBox="0 0 986 244" zoomAndPan="magnify" preserveAspectRatio="none" contentStyleType="text/css"><?plantuml 1.2026.7?><defs/><g font-family="sans-serif" lengthAdjust="spacing"><!--cluster Application--><g class="cluster" data-qualified-name="Application" id="ent0001" data-source-line="1"><path d="M8.5,6 L91.511,6 A3.75,3.75 0 0 1 94.011,8.5 L101.011,28.488 L617.5,28.488 A2.5,2.5 0 0 1 620,30.988 L620,118.99 A2.5,2.5 0 0 1 617.5,121.49 L8.5,121.49 A2.5,2.5 0 0 1 6,118.99 L6,8.5 A2.5,2.5 0 0 1 8.5,6" style="stroke:#000;stroke-width:1.5;" fill="none"/><line x1="6" y1="28.488" x2="101.011" y2="28.488" style="stroke:#000;stroke-width:1.5;"/><text x="10" y="21.535" fill="#000" font-size="14" textLength="82.011" font-weight="700">Application</text></g><!--class UserApplicationService--><g class="entity" data-qualified-name="Application.UserApplicationService" id="ent0002" data-source-line="2"><rect x="21.58" y="41" width="238.83" height="64.488" fill="#F1F1F1" style="stroke:#181818;stroke-width:0.5;" rx="2.5" ry="2.5"/><ellipse cx="60.107" cy="57" rx="11" ry="11" fill="#ADD1B2" style="stroke:#181818;stroke-width:1;"/><path d="M62.581,63.143 Q62,63.442 61.36,63.591 Q60.721,63.741 60.016,63.741 Q57.509,63.741 56.189,62.089 Q54.869,60.437 54.869,57.316 Q54.869,54.187 56.189,52.535 Q57.509,50.883 60.016,50.883 Q60.721,50.883 61.369,51.032 Q62.016,51.182 62.581,51.48 L62.581,54.203 Q61.95,53.622 61.356,53.352 Q60.763,53.083 60.132,53.083 Q58.787,53.083 58.102,54.149 Q57.418,55.216 57.418,57.316 Q57.418,59.408 58.102,60.474 Q58.787,61.541 60.132,61.541 Q60.763,61.541 61.356,61.271 Q61.95,61.001 62.581,60.42 Z " fill="#000"/><text x="79.336" y="62.291" fill="#000" font-size="14" textLength="154.547">UserApplicationService</text><line x1="22.58" y1="73" x2="259.41" y2="73" style="stroke:#181818;stroke-width:0.5;"/><g data-visibility-modifier="PRIVATE_FIELD"><rect x="29.58" y="83.744" width="6" height="6" fill="none" style="stroke:#C82930;stroke-width:1;"/></g><text x="41.58" y="90.535" fill="#000" font-size="14" textLength="212.83">userRepository: UserRepository</text><line x1="22.58" y1="97.488" x2="259.41" y2="97.488" style="stroke:#181818;stroke-width:0.5;"/></g><!--class UserRepository--><g class="entity" data-qualified-name="Application.UserRepository" id="ent0003" data-source-line="6"><rect x="295.7" y="41" width="308.591" height="64.488" fill="#F1F1F1" style="stroke:#181818;stroke-width:0.5;" rx="2.5" ry="2.5"/><ellipse cx="394.5" cy="57" rx="11" ry="11" fill="#B4A7E5" style="stroke:#181818;stroke-width:1;"/><path d="M390.928,53.265 L390.928,51.107 L398.307,51.107 L398.307,53.265 L395.842,53.265 L395.842,61.342 L398.307,61.342 L398.307,63.5 L390.928,63.5 L390.928,61.342 L393.393,61.342 L393.393,53.265 Z " fill="#000"/><text x="415" y="62.291" fill="#000" font-size="14" textLength="102.491" font-style="italic">UserRepository</text><line x1="296.7" y1="73" x2="603.291" y2="73" style="stroke:#181818;stroke-width:0.5;"/><line x1="296.7" y1="81" x2="603.291" y2="81" style="stroke:#181818;stroke-width:0.5;"/><text x="301.7" y="98.535" fill="#000" font-size="14" textLength="296.591">FindByName(name UserName) (*User, error)</text></g><g class="entity" data-qualified-name="GMN4" id="ent0005" data-source-line="11"><path d="M639,60.59 L639,69.25 L604.62,73.25 L639,77.25 L639,85.901 A0,0 0 0 0 639,85.901 L971,85.901 A0,0 0 0 0 971,85.901 L971,70.59 L961,60.59 L639,60.59 A0,0 0 0 0 639,60.59" style="stroke:#181818;stroke-width:0.5;" fill="#FEFFDD"/><path d="M961,60.59 L961,70.59 L971,70.59 L961,60.59" style="stroke:#181818;stroke-width:0.5;" fill="#FEFFDD"/><ellipse cx="650.5" cy="73.401" rx="2.5" ry="2.5" fill="#000"/><text x="657" y="78.158" fill="#000" font-size="13" textLength="299">インターフェースの主導権は上位レベルに持たせる</text></g><!--class MySQLUserRepository--><g class="entity" data-qualified-name="MySQLUserRepository" id="ent0007" data-source-line="14"><rect x="288.7" y="165.49" width="322.591" height="64.488" fill="#F1F1F1" style="stroke:#181818;stroke-width:0.5;" rx="2.5" ry="2.5"/><ellipse cx="371.873" cy="181.49" rx="11" ry="11" fill="#ADD1B2" style="stroke:#181818;stroke-width:1;"/><path d="M374.346,187.633 Q373.765,187.932 373.126,188.081 Q372.487,188.231 371.781,188.231 Q369.274,188.231 367.954,186.579 Q366.635,184.927 366.635,181.806 Q366.635,178.677 367.954,177.025 Q369.274,175.373 371.781,175.373 Q372.487,175.373 373.134,175.522 Q373.782,175.672 374.346,175.97 L374.346,178.693 Q373.715,178.112 373.122,177.842 Q372.528,177.573 371.897,177.573 Q370.553,177.573 369.868,178.639 Q369.183,179.706 369.183,181.806 Q369.183,183.898 369.868,184.964 Q370.553,186.031 371.897,186.031 Q372.528,186.031 373.122,185.761 Q373.715,185.491 374.346,184.91 Z " fill="#000"/><text x="392.373" y="186.781" fill="#000" font-size="14" textLength="147.745">MySQLUserRepository</text><line x1="289.7" y1="197.49" x2="610.291" y2="197.49" style="stroke:#181818;stroke-width:0.5;"/><line x1="289.7" y1="205.49" x2="610.291" y2="205.49" style="stroke:#181818;stroke-width:0.5;"/><g data-visibility-modifier="PRIVATE_METHOD"><rect x="296.7" y="216.234" width="6" height="6" fill="#F24D5C" style="stroke:#C82930;stroke-width:1;"/></g><text x="308.7" y="223.025" fill="#000" font-size="14" textLength="296.591">FindByName(name UserName) (*User, error)</text></g><g class="entity" data-qualified-name="GMN8" id="ent0009" data-source-line="18"><path d="M646.5,185.08 L646.5,193.74 L611.6,197.74 L646.5,201.74 L646.5,210.391 A0,0 0 0 0 646.5,210.391 L887.5,210.391 A0,0 0 0 0 887.5,210.391 L887.5,195.08 L877.5,185.08 L646.5,185.08 A0,0 0 0 0 646.5,185.08" style="stroke:#181818;stroke-width:0.5;" fill="#FEFFDD"/><path d="M877.5,185.08 L877.5,195.08 L887.5,195.08 L877.5,185.08" style="stroke:#181818;stroke-width:0.5;" fill="#FEFFDD"/><ellipse cx="658" cy="197.891" rx="2.5" ry="2.5" fill="#000"/><text x="664.5" y="202.648" fill="#000" font-size="13" textLength="208">下位レベルが上位レベルに合わせる</text></g><!--reverse link UserRepository to MySQLUserRepository--><g class="link" data-entity-1="ent0003" data-entity-2="ent0007" id="lnk11" data-source-line="21" data-link-type="extension"><path d="M450,123.79 C450,142.08 450,147.03 450,165.3" style="stroke:#181818;stroke-width:1;stroke-dasharray:7,7;" fill="none" id="UserRepository-backto-MySQLUserRepository" codeLine="21"/><polygon points="450,105.79,444,123.79,456,123.79,450,105.79" fill="none" style="stroke:#181818;stroke-width:1;stroke-linejoin:miter;stroke-miterlimit:10;"/></g><!--link UserApplicationService to UserRepository--><g class="link" data-entity-1="ent0002" data-entity-2="ent0003" id="lnk12" data-source-line="22" data-link-type="dependency"><path d="M260.8,73.25 C272.38,73.25 278.96,73.25 290.53,73.25" style="stroke:#181818;stroke-width:1;stroke-dasharray:7,7;" fill="none" id="UserApplicationService-to-UserRepository" codeLine="22"/><polygon points="295.53,73.25,286.53,69.25,290.53,73.25,286.53,77.25,295.53,73.25" fill="#181818" style="stroke:#181818;stroke-width:1;stroke-linejoin:miter;stroke-miterlimit:10;"/></g><?plantuml-src AqXCpavCJrLmB2Z8oKnEBCdCprEevb9GICv9B2vM22rEBKAI2KujAijCJWKhK53GLIW5IWUb5kGNPvRa5rLQWPKZ-415jLn08ZEl9BKeBH6e3rKUQenRPbwAKwLVOcwgHXwG02i2yJGLDBH0R1s5rAAY_29Di76rN7dv9QaAHPdf6ILSMWgFcvOyRjxyk6d_u-OzZvkdFcvQ3c8qxNpSkEx9ZjrFD_GzMx7oSUFw9pkwdkpjVToyvd7ppCVDgnythdxMq_YuSVxZnjcFcxgvKlDIGAPoSK4yxLiP7EY3nQcwn3iLpPbFTdIZsj-3wQAd4peUD_MZkmZD6JOrUdhOtCU58wBqxD327000?></g></svg>