<svg xmlns="http://www.w3.org/2000/svg" xmlns:xlink="http://www.w3.org/1999/xlink" version="1.1" data-diagram-type="CLASS" style="width:1115px;height:382px;background:#FFFFFF;" width="1115px" height="382px" viewBox="0 0 1115 382" zoomAndPan="magnify" preserveAspectRatio="none" contentStyleType="text/css"><?plantuml 1.2026.7?><defs/><g font-family="sans-serif" lengthAdjust="spacing"><g class="title" data-source-line="1"><text x="344.165" y="23.535" fill="#000" font-size="14" textLength="420" font-weight="700">コントローラーとクライアントとアプリケーションサービスの関係</text></g><!--class UserController--><g class="entity" data-qualified-name="UserController" id="ent0001" data-source-line="3"><rect x="377.56" y="145.118" width="459.542" height="80.977" fill="#F1F1F1" style="stroke:#181818;stroke-width:0.5;" rx="2.5" ry="2.5"/><ellipse cx="553.818" cy="161.118" rx="11" ry="11" fill="#ADD1B2" style="stroke:#181818;stroke-width:1;"/><path d="M556.291,167.261 Q555.71,167.56 555.071,167.71 Q554.432,167.859 553.726,167.859 Q551.219,167.859 549.899,166.207 Q548.58,164.555 548.58,161.434 Q548.58,158.305 549.899,156.653 Q551.219,155.001 553.726,155.001 Q554.432,155.001 555.079,155.151 Q555.727,155.3 556.291,155.599 L556.291,158.321 Q555.66,157.74 555.067,157.471 Q554.473,157.201 553.842,157.201 Q552.498,157.201 551.813,158.267 Q551.128,159.334 551.128,161.434 Q551.128,163.526 551.813,164.593 Q552.498,165.659 553.842,165.659 Q554.473,165.659 555.067,165.39 Q555.66,165.12 556.291,164.539 Z " fill="#000"/><text x="574.318" y="166.409" fill="#000" font-size="14" textLength="98.526">UserController</text><line x1="378.56" y1="177.118" x2="836.102" y2="177.118" style="stroke:#181818;stroke-width:0.5;"/><line x1="378.56" y1="185.118" x2="836.102" y2="185.118" style="stroke:#181818;stroke-width:0.5;"/><g data-visibility-modifier="PUBLIC_METHOD"><ellipse cx="388.56" cy="198.862" rx="3" ry="3" fill="#84BE84" style="stroke:#038048;stroke-width:1;"/></g><text x="397.56" y="202.653" fill="#000" font-size="14" textLength="433.542">NewUserController(svc *UserApplicationService) *UserController</text><g data-visibility-modifier="PUBLIC_METHOD"><ellipse cx="388.56" cy="215.351" rx="3" ry="3" fill="#84BE84" style="stroke:#038048;stroke-width:1;"/></g><text x="397.56" y="219.142" fill="#000" font-size="14" textLength="329.889">Register(w http.ResponseWriter, r *http.Request)</text></g><g class="entity" data-qualified-name="GMN2" id="ent0003" data-source-line="8"><path d="M447.83,43.488 L447.83,84.109 A0,0 0 0 0 447.83,84.109 L603.33,84.109 L607.33,144.898 L611.33,84.109 L766.83,84.109 A0,0 0 0 0 766.83,84.109 L766.83,53.488 L756.83,43.488 L447.83,43.488 A0,0 0 0 0 447.83,43.488" style="stroke:#181818;stroke-width:0.5;" fill="#FEFFDD"/><path d="M756.83,43.488 L756.83,53.488 L766.83,53.488 L756.83,43.488" style="stroke:#181818;stroke-width:0.5;" fill="#FEFFDD"/><ellipse cx="459.33" cy="56.299" rx="2.5" ry="2.5" fill="#000"/><text x="465.83" y="61.057" fill="#000" font-size="13" textLength="63.292">Controller</text><ellipse cx="459.33" cy="71.609" rx="2.5" ry="2.5" fill="#000"/><text x="465.83" y="76.367" fill="#000" font-size="13" textLength="286">クライアントとアプリケーションサービスの仲介</text></g><!--class UserRegisterCommand--><g class="entity" data-qualified-name="UserRegisterCommand" id="ent0005" data-source-line="12"><rect x="7" y="303.088" width="560.659" height="64.488" fill="#F1F1F1" style="stroke:#181818;stroke-width:0.5;" rx="2.5" ry="2.5"/><ellipse cx="205.403" cy="319.088" rx="11" ry="11" fill="#ADD1B2" style="stroke:#181818;stroke-width:1;"/><path d="M207.876,325.231 Q207.295,325.53 206.656,325.68 Q206.017,325.829 205.311,325.829 Q202.804,325.829 201.484,324.177 Q200.165,322.525 200.165,319.404 Q200.165,316.275 201.484,314.623 Q202.804,312.971 205.311,312.971 Q206.017,312.971 206.664,313.121 Q207.312,313.27 207.876,313.569 L207.876,316.291 Q207.245,315.71 206.652,315.441 Q206.058,315.171 205.427,315.171 Q204.083,315.171 203.398,316.237 Q202.713,317.304 202.713,319.404 Q202.713,321.496 203.398,322.563 Q204.083,323.629 205.427,323.629 Q206.058,323.629 206.652,323.36 Q207.245,323.09 207.876,322.509 Z " fill="#000"/><text x="225.903" y="324.379" fill="#000" font-size="14" textLength="155.354">UserRegisterCommand</text><line x1="8" y1="335.088" x2="566.659" y2="335.088" style="stroke:#181818;stroke-width:0.5;"/><line x1="8" y1="343.088" x2="566.659" y2="343.088" style="stroke:#181818;stroke-width:0.5;"/><g data-visibility-modifier="PUBLIC_METHOD"><ellipse cx="18" cy="356.832" rx="3" ry="3" fill="#84BE84" style="stroke:#038048;stroke-width:1;"/></g><text x="27" y="360.623" fill="#000" font-size="14" textLength="534.659">NewUserRegisterCommand(req UserPostRequestModel) UserRegisterCommand</text></g><g class="entity" data-qualified-name="GMN6" id="ent0007" data-source-line="16"><path d="M75.83,165.288 L75.83,205.909 A0,0 0 0 0 75.83,205.909 L215.69,205.909 L270.64,302.728 L223.69,205.909 L342.83,205.909 A0,0 0 0 0 342.83,205.909 L342.83,175.288 L332.83,165.288 L75.83,165.288 A0,0 0 0 0 75.83,165.288" style="stroke:#181818;stroke-width:0.5;" fill="#FEFFDD"/><path d="M332.83,165.288 L332.83,175.288 L342.83,175.288 L332.83,165.288" style="stroke:#181818;stroke-width:0.5;" fill="#FEFFDD"/><ellipse cx="87.33" cy="178.099" rx="2.5" ry="2.5" fill="#000"/><text x="93.83" y="182.857" fill="#000" font-size="13" textLength="130">コマンドオブジェクト</text><ellipse cx="87.33" cy="193.409" rx="2.5" ry="2.5" fill="#000"/><text x="93.83" y="198.167" fill="#000" font-size="13" textLength="234">ユーザ登録に必要なデータオブジェクト</text></g><!--class UserApplicationService--><g class="entity" data-qualified-name="UserApplicationService" id="ent0009" data-source-line="20"><rect x="712.69" y="303.088" width="303.286" height="64.488" fill="#F1F1F1" style="stroke:#181818;stroke-width:0.5;" rx="2.5" ry="2.5"/><ellipse cx="782.81" cy="319.088" rx="11" ry="11" fill="#ADD1B2" style="stroke:#181818;stroke-width:1;"/><path d="M785.283,325.231 Q784.702,325.53 784.063,325.68 Q783.423,325.829 782.718,325.829 Q780.211,325.829 778.891,324.177 Q777.571,322.525 777.571,319.404 Q777.571,316.275 778.891,314.623 Q780.211,312.971 782.718,312.971 Q783.423,312.971 784.071,313.121 Q784.718,313.27 785.283,313.569 L785.283,316.291 Q784.652,315.71 784.058,315.441 Q783.465,315.171 782.834,315.171 Q781.489,315.171 780.805,316.237 Q780.12,317.304 780.12,319.404 Q780.12,321.496 780.805,322.563 Q781.489,323.629 782.834,323.629 Q783.465,323.629 784.058,323.36 Q784.652,323.09 785.283,322.509 Z " fill="#000"/><text x="803.31" y="324.379" fill="#000" font-size="14" textLength="154.547">UserApplicationService</text><line x1="713.69" y1="335.088" x2="1014.976" y2="335.088" style="stroke:#181818;stroke-width:0.5;"/><line x1="713.69" y1="343.088" x2="1014.976" y2="343.088" style="stroke:#181818;stroke-width:0.5;"/><text x="718.69" y="360.623" fill="#000" font-size="14" textLength="291.286">Register(cmd UserRegisterCommand) error</text></g><g class="entity" data-qualified-name="GMN10" id="ent0011" data-source-line="24"><path d="M872.33,157.638 L872.33,213.57 A0,0 0 0 0 872.33,213.57 L959.67,213.57 L890.47,302.678 L967.67,213.57 L1100.33,213.57 A0,0 0 0 0 1100.33,213.57 L1100.33,167.638 L1090.33,157.638 L872.33,157.638 A0,0 0 0 0 872.33,157.638" style="stroke:#181818;stroke-width:0.5;" fill="#FEFFDD"/><path d="M1090.33,157.638 L1090.33,167.638 L1100.33,167.638 L1090.33,157.638" style="stroke:#181818;stroke-width:0.5;" fill="#FEFFDD"/><ellipse cx="883.83" cy="170.449" rx="2.5" ry="2.5" fill="#000"/><text x="890.33" y="175.207" fill="#000" font-size="13" textLength="38.365">Model</text><ellipse cx="883.83" cy="185.759" rx="2.5" ry="2.5" fill="#000"/><text x="890.33" y="190.517" fill="#000" font-size="13" textLength="195">ユーザアプリケーションサービス</text><ellipse cx="883.83" cy="201.07" rx="2.5" ry="2.5" fill="#000"/><text x="890.33" y="205.828" fill="#000" font-size="13" textLength="117">ユーザ登録する処理</text></g><!--link UserController to UserRegisterCommand--><g class="link" data-entity-1="ent0001" data-entity-2="ent0005" id="lnk13" data-source-line="29" data-link-type="dependency"><path d="M424.8,226.558 C403,234.718 381.65,244.468 362.33,256.088 C342.33,268.118 327.316,283.011 313.846,299.131" style="stroke:#181818;stroke-width:1;" fill="none" id="UserController-to-UserRegisterCommand" codeLine="29"/><polygon points="310.64,302.968,319.48,298.627,313.846,299.131,313.341,293.497,310.64,302.968" fill="#181818" style="stroke:#181818;stroke-width:1;stroke-linejoin:miter;stroke-miterlimit:10;"/><text x="363.33" y="269.657" fill="#000" font-size="13" textLength="364">クライアントからのデータよりユーザ登録に必要なデータ作成</text></g><!--link UserController to UserApplicationService--><g class="link" data-entity-1="ent0001" data-entity-2="ent0009" id="lnk14" data-source-line="30" data-link-type="dependency"><path d="M676.88,226.578 C718.5,250.508 766.325,277.996 805.045,300.256" style="stroke:#181818;stroke-width:1;" fill="none" id="UserController-to-UserApplicationService" codeLine="30"/><polygon points="809.38,302.748,803.571,294.795,805.045,300.256,799.584,301.73,809.38,302.748" fill="#181818" style="stroke:#181818;stroke-width:1;stroke-linejoin:miter;stroke-miterlimit:10;"/><text x="752.22" y="269.657" fill="#000" font-size="13" textLength="65">ユーザ登録</text></g><?plantuml-src fP9DIm916CVl-odcg9Pz00z1U2x2YCwo3hMmxgmpanwYmyvIhjb120mXEaXe6HKPlM7XXtdMp6_HpcJvje4G3ClmlEt_z_o76zp42CG3kC7nmBq1zmtSA_brBa7SoRku054V5iXWS3y5jmNYNfQ9Pt2RCYiULUy9Y5TmRWVLkjyLcgQRQSRG9iCqIInEYMbYYlOqX1RG6YvCnYCihwEOZAtOjcdeQMuGQmFJlA7Zw7TYLAn6fF2smNZGMK0xdDjBASniOZ6yHOqWkeWeYWtZkLtCU5JRrop2CUB4rc9eR5WC_GVMxxJzJbd3LaPE7uV-4PWasMpQoaoIJoKZ5ETKqpfXVAXubMIm6GqRDOcYB3nNkaiWMk1MGRo0Q2egJnQu3GNmrAzr1iTjSAvxtOFFXWDEK5nKgMv8OmZIh3UAwjSAFPi9qnj5c5929sKhl75ryomyZAO6ejmhDlgLmv7agKSNZo-7wKg4Eby6KGgC7LkD1-9edYNwxsSVNkMldyykBp4DymK0?></g></svg>