<svg xmlns="http://www.w3.org/2000/svg" xmlns:xlink="http://www.w3.org/1999/xlink" version="1.1" data-diagram-type="CLASS" style="width:1049px;height:214px;background:#FFFFFF;" width="1049px" height="214px" viewBox="0 0 1049 214" zoomAndPan="magnify" preserveAspectRatio="none" contentStyleType="text/css"><?plantuml 1.2026.7?><defs/><g font-family="sans-serif" lengthAdjust="spacing"><!--class ISpecification--><g class="entity" data-qualified-name="ISpecification" id="ent0001" data-source-line="1"><rect x="376.24" y="10" width="252.625" height="64.488" fill="#F1F1F1" style="stroke:#181818;stroke-width:0.5;" rx="2.5" ry="2.5"/><ellipse cx="447.473" cy="26" rx="11" ry="11" fill="#B4A7E5" style="stroke:#181818;stroke-width:1;"/><path d="M443.901,22.265 L443.901,20.107 L451.281,20.107 L451.281,22.265 L448.815,22.265 L448.815,30.342 L451.281,30.342 L451.281,32.5 L443.901,32.5 L443.901,30.342 L446.366,30.342 L446.366,22.265 Z " fill="#000"/><text x="467.973" y="31.291" fill="#000" font-size="14" textLength="90.07" font-style="italic">ISpecification</text><rect x="622.277" y="7" width="9.588" height="16.133" fill="#FFF" style="stroke:#181818;stroke-width:1;stroke-dasharray:2,2;"/><text x="623.277" y="19.602" fill="#000" font-size="12" font-style="italic">T</text><line x1="377.24" y1="42" x2="627.865" y2="42" style="stroke:#181818;stroke-width:0.5;"/><line x1="377.24" y1="50" x2="627.865" y2="50" style="stroke:#181818;stroke-width:0.5;"/><text x="382.24" y="67.535" fill="#000" font-size="14" textLength="240.625">isSatisfiedBy&lt;T>(value: T): boolean</text></g><g class="entity" data-qualified-name="GMN2" id="ent0003" data-source-line="5"><path d="M664.2,14.28 L664.2,38.25 L629.29,42.25 L664.2,46.25 L664.2,70.212 A0,0 0 0 0 664.2,70.212 L1034.905,70.212 A0,0 0 0 0 1034.905,70.212 L1034.905,24.28 L1024.905,14.28 L664.2,14.28 A0,0 0 0 0 664.2,14.28" style="stroke:#181818;stroke-width:0.5;" fill="#FEFFDD"/><path d="M1024.905,14.28 L1024.905,24.28 L1034.905,24.28 L1024.905,14.28" style="stroke:#181818;stroke-width:0.5;" fill="#FEFFDD"/><text x="670.2" y="31.848" fill="#000" font-size="13" textLength="159.11">interfaceを利用することで</text><text x="670.2" y="47.159" fill="#000" font-size="13" textLength="349.705">さまざまな検索結果をCircleRepositoryを修正することなく</text><text x="670.2" y="62.469" fill="#000" font-size="13" textLength="65">追加できる</text></g><!--class CircleRecommendSpecification--><g class="entity" data-qualified-name="CircleRecommendSpecification" id="ent0005" data-source-line="9"><rect x="172.61" y="135.49" width="311.879" height="64.488" fill="#F1F1F1" style="stroke:#181818;stroke-width:0.5;" rx="2.5" ry="2.5"/><ellipse cx="220.11" cy="151.49" rx="11" ry="11" fill="#ADD1B2" style="stroke:#181818;stroke-width:1;"/><path d="M222.583,157.633 Q222.002,157.932 221.362,158.081 Q220.723,158.231 220.018,158.231 Q217.511,158.231 216.191,156.579 Q214.871,154.927 214.871,151.806 Q214.871,148.677 216.191,147.025 Q217.511,145.373 220.018,145.373 Q220.723,145.373 221.371,145.522 Q222.018,145.672 222.583,145.97 L222.583,148.693 Q221.952,148.112 221.358,147.842 Q220.765,147.573 220.134,147.573 Q218.789,147.573 218.104,148.639 Q217.42,149.706 217.42,151.806 Q217.42,153.898 218.104,154.964 Q218.789,156.031 220.134,156.031 Q220.765,156.031 221.358,155.761 Q221.952,155.491 222.583,154.91 Z " fill="#000"/><text x="240.61" y="156.781" fill="#000" font-size="14" textLength="208.38">CircleRecommendSpecification</text><line x1="173.61" y1="167.49" x2="483.489" y2="167.49" style="stroke:#181818;stroke-width:0.5;"/><line x1="173.61" y1="175.49" x2="483.489" y2="175.49" style="stroke:#181818;stroke-width:0.5;"/><text x="178.61" y="193.025" fill="#000" font-size="14" textLength="299.879">isSatisfiedBy&lt;Circle>(value: Circle): boolean</text></g><!--class CircleNewCreateSpecification--><g class="entity" data-qualified-name="CircleNewCreateSpecification" id="ent0006" data-source-line="12"><rect x="519.61" y="135.49" width="311.879" height="64.488" fill="#F1F1F1" style="stroke:#181818;stroke-width:0.5;" rx="2.5" ry="2.5"/><ellipse cx="572.585" cy="151.49" rx="11" ry="11" fill="#ADD1B2" style="stroke:#181818;stroke-width:1;"/><path d="M575.058,157.633 Q574.477,157.932 573.838,158.081 Q573.199,158.231 572.493,158.231 Q569.986,158.231 568.667,156.579 Q567.347,154.927 567.347,151.806 Q567.347,148.677 568.667,147.025 Q569.986,145.373 572.493,145.373 Q573.199,145.373 573.846,145.522 Q574.494,145.672 575.058,145.97 L575.058,148.693 Q574.427,148.112 573.834,147.842 Q573.24,147.573 572.61,147.573 Q571.265,147.573 570.58,148.639 Q569.895,149.706 569.895,151.806 Q569.895,153.898 570.58,154.964 Q571.265,156.031 572.61,156.031 Q573.24,156.031 573.834,155.761 Q574.427,155.491 575.058,154.91 Z " fill="#000"/><text x="593.085" y="156.781" fill="#000" font-size="14" textLength="197.429">CircleNewCreateSpecification</text><line x1="520.61" y1="167.49" x2="830.489" y2="167.49" style="stroke:#181818;stroke-width:0.5;"/><line x1="520.61" y1="175.49" x2="830.489" y2="175.49" style="stroke:#181818;stroke-width:0.5;"/><text x="525.61" y="193.025" fill="#000" font-size="14" textLength="299.879">isSatisfiedBy&lt;Circle>(value: Circle): boolean</text></g><!--class CircleRepository--><g class="entity" data-qualified-name="CircleRepository" id="ent0007" data-source-line="15"><rect x="7" y="10" width="307.101" height="64.488" fill="#F1F1F1" style="stroke:#181818;stroke-width:0.5;" rx="2.5" ry="2.5"/><ellipse cx="100.998" cy="26" rx="11" ry="11" fill="#ADD1B2" style="stroke:#181818;stroke-width:1;"/><path d="M103.471,32.143 Q102.89,32.442 102.25,32.591 Q101.611,32.741 100.906,32.741 Q98.399,32.741 97.079,31.089 Q95.759,29.437 95.759,26.316 Q95.759,23.187 97.079,21.535 Q98.399,19.883 100.906,19.883 Q101.611,19.883 102.259,20.032 Q102.906,20.182 103.471,20.48 L103.471,23.203 Q102.84,22.622 102.246,22.352 Q101.653,22.083 101.022,22.083 Q99.677,22.083 98.992,23.149 Q98.308,24.216 98.308,26.316 Q98.308,28.408 98.992,29.474 Q99.677,30.541 101.022,30.541 Q101.653,30.541 102.246,30.271 Q102.84,30.001 103.471,29.42 Z " fill="#000"/><text x="121.498" y="31.291" fill="#000" font-size="14" textLength="110.605">CircleRepository</text><line x1="8" y1="42" x2="313.101" y2="42" style="stroke:#181818;stroke-width:0.5;"/><line x1="8" y1="50" x2="313.101" y2="50" style="stroke:#181818;stroke-width:0.5;"/><g data-visibility-modifier="PUBLIC_METHOD"><ellipse cx="18" cy="63.744" rx="3" ry="3" fill="#84BE84" style="stroke:#038048;stroke-width:1;"/></g><text x="27" y="67.535" fill="#000" font-size="14" textLength="281.101">find(specification: ISpecification&lt;Circle>)</text></g><!--reverse link ISpecification to CircleRecommendSpecification--><g class="link" data-entity-1="ent0001" data-entity-2="ent0005" id="lnk8" data-source-line="18" data-link-type="extension"><path d="M443.511,85.148 C417.431,103.658 399.25,116.56 373.13,135.1" style="stroke:#181818;stroke-width:1;" fill="none" id="ISpecification-backto-CircleRecommendSpecification" codeLine="18"/><polygon points="458.19,74.73,440.039,80.255,446.984,90.041,458.19,74.73" fill="none" style="stroke:#181818;stroke-width:1;stroke-linejoin:miter;stroke-miterlimit:10;"/></g><!--reverse link ISpecification to CircleNewCreateSpecification--><g class="link" data-entity-1="ent0001" data-entity-2="ent0006" id="lnk9" data-source-line="19" data-link-type="extension"><path d="M561.3,85.188 C587.23,103.698 605.26,116.56 631.23,135.1" style="stroke:#181818;stroke-width:1;" fill="none" id="ISpecification-backto-CircleNewCreateSpecification" codeLine="19"/><polygon points="546.65,74.73,557.814,90.071,564.786,80.305,546.65,74.73" fill="none" style="stroke:#181818;stroke-width:1;stroke-linejoin:miter;stroke-miterlimit:10;"/></g><!--link CircleRepository to ISpecification--><g class="link" data-entity-1="ent0007" data-entity-2="ent0001" id="lnk10" data-source-line="20" data-link-type="dependency"><path d="M314.54,42.25 C335.02,42.25 350.83,42.25 370.77,42.25" style="stroke:#181818;stroke-width:1;" fill="none" id="CircleRepository-to-ISpecification" codeLine="20"/><polygon points="375.77,42.25,366.77,38.25,370.77,42.25,366.77,46.25,375.77,42.25" fill="#181818" style="stroke:#181818;stroke-width:1;stroke-linejoin:miter;stroke-miterlimit:10;"/><text x="332.17" y="35.818" fill="#000" font-size="13" textLength="26">利用</text></g><?plantuml-src oymhIIrAIqnELV0CBaXDpapBJ4uioSpFimcng-PIKCWi3WPoYzCoKrESAe5Y6cM9EQMfLWeXcbOAIVdvEQc9ULorN7dv9QaAHPdf6ILScJ3p7ZTDUjgnylcK5OyRPpvkwdxSEFbn8v2zdEjnuzJ7ZViUDqu3awkUBPdpVCkYvridF9it1wZ7ERCeEISrABKWlpYp9B-e4YZqPF-wPsiNengpwd5ZFzUB_NkVTYq0clcuiHSenvMQbm9o2LToJc9niGBCfEJyt5oW38hl533z1b4Ezo24Y-9BP6FzKikTYr8JIr9HZANKL8ItmGxKLaZBp4lHA4QsmWezdg0sQ0ADGfLHiAdHrSKR2dWqOFSV5uOpTUtGt6Eb08br0000?></g></svg>